<svg width="80" height="60" viewBox="0 0 80 60" fill="none" xmlns="http://www.w3.org/2000/svg">
<g clip-path="url(#clip0_526_7)">
<path fill-rule="evenodd" clip-rule="evenodd" d="M0 0H114V4.61725H0V0ZM0 9.23438H114V13.8516H0V9.23438ZM0 18.457H114V23.0859H0V18.457ZM0 27.6914H114V32.3086H0V27.6914ZM0 36.9258H114V41.543H0V36.9258ZM0 46.1484H114V50.7656H0V46.1484ZM0 55.3828H114V60H0V55.3828Z" fill="#BD3D44"/>
<path fill-rule="evenodd" clip-rule="evenodd" d="M0 4.61725H114V9.23437H0V4.61725ZM0 13.8515H114V18.457H0V13.8515ZM0 23.0742H114V27.6914H0V23.0742ZM0 32.3086H114V36.9258H0V32.3086ZM0 41.543H114V46.1601H0V41.543ZM0 50.7656H114V55.3829H0V50.7656Z" fill="white"/>
<path fill-rule="evenodd" clip-rule="evenodd" d="M0 0H45.5976V32.3086H0V0Z" fill="#192F5D"/>
<path fill-rule="evenodd" clip-rule="evenodd" d="M3.79693 1.38287L4.21881 2.66H5.55481L4.47656 3.44525L4.88681 4.73425L3.79693 3.93737L2.71881 4.7225L3.12893 3.44525L2.03918 2.66H3.39856L3.79693 1.38287ZM11.4024 1.38287L11.8126 2.66H13.1602L12.0703 3.44525L12.4806 4.73425L11.4024 3.93737L10.3126 4.7225L10.7227 3.44525L9.64456 2.66H10.9806L11.4024 1.38287ZM18.9962 1.38287L19.4181 2.66012H20.7423L19.6642 3.44537L20.0742 4.73437L18.9844 3.9375L17.9063 4.72262L18.3164 3.44537L17.2266 2.66012H18.5743L18.9962 1.38287ZM26.6017 1.38287L27.0117 2.66012H28.3594L27.2696 3.44537L27.6914 4.73437L26.6016 3.9375L25.5118 4.72262L25.9337 3.44537L24.8438 2.66012H26.1798L26.6017 1.38287ZM34.1954 1.38287L34.6173 2.66012H35.9532L34.8751 3.44537L35.2852 4.73437L34.1953 3.9375L33.1172 4.72262L33.5274 3.44537L32.4493 2.66012H33.7852L34.1954 1.38287ZM41.8008 1.38287L42.2109 2.66012H43.5587L42.4688 3.44537L42.8907 4.73437L41.8008 3.9375L40.7109 4.72262L41.1328 3.44537L40.0431 2.66012H41.3907L41.8008 1.38287ZM7.60556 4.617L8.01568 5.8945H9.36331L8.27343 6.6795L8.67193 7.957L7.61718 7.17175L6.52743 7.95687L6.91406 6.67962L5.85943 5.89437H7.19543L7.60556 4.617ZM15.1993 4.617L15.6212 5.8945H16.9571L15.8672 6.6795L16.2892 7.957L15.1992 7.17175L14.1094 7.95687L14.5313 6.67962L13.4414 5.89437H14.7891L15.1993 4.617ZM22.8048 4.617L23.2148 5.8945H24.5626L23.4727 6.6795L23.8828 7.957L22.8047 7.17175L21.7149 7.95687L22.1251 6.67975L21.0469 5.8945H22.3829L22.8048 4.617ZM30.3986 4.617L30.8204 5.8945H32.1563L31.0664 6.6795L31.4883 7.957L30.3984 7.17175L29.3203 7.95687L29.7306 6.67962L28.6407 5.89437H30.0001L30.3986 4.617ZM38.0039 4.617L38.4141 5.8945H39.7618L38.6719 6.6795L39.0821 7.957L38.0039 7.17175L36.9141 7.95687L37.3243 6.67962L36.2462 5.89437H37.5821L38.0039 4.617ZM3.79693 7.84L4.21881 9.14075H5.55481L4.47656 9.92587L4.88681 11.2032L3.79693 10.4064L2.71881 11.2032L3.12893 9.91412L2.03918 9.12912H3.39856L3.79693 7.84ZM11.4024 7.84L11.8126 9.12875H13.1602L12.0703 9.91387L12.4806 11.1914L11.4024 10.3944L10.3126 11.1912L10.7227 9.90225L9.64456 9.11712H10.9806L11.4024 7.84ZM18.9962 7.84L19.4181 9.129H20.7423L19.6642 9.91412L20.0742 11.1916L18.9844 10.3946L17.9063 11.1915L18.3164 9.9025L17.2266 9.11737H18.5743L18.9962 7.84ZM26.6017 7.84L27.0117 9.129H28.3594L27.2696 9.91412L27.6914 11.1916L26.6016 10.3946L25.5118 11.1915L25.9337 9.9025L24.8438 9.11737H26.1798L26.6017 7.84ZM34.1954 7.84L34.6173 9.129H35.9532L34.8751 9.914L35.2852 11.1915L34.1953 10.3945L33.1172 11.1914L33.5274 9.90237L32.4493 9.11725H33.7852L34.1954 7.84ZM41.8008 7.84L42.2109 9.129H43.5587L42.4688 9.91412L42.8907 11.1916L41.8008 10.3946L40.7109 11.1915L41.1328 9.9025L40.0431 9.11737H41.3907L41.8008 7.84ZM7.60556 11.0742L8.01568 12.3516H9.36331L8.27343 13.1366L8.68368 14.4257L7.60556 13.6289L6.51568 14.414L6.92581 13.1367L5.84768 12.3516H7.18381L7.60556 11.0742ZM15.1993 11.0742L15.6212 12.3516H16.9571L15.8672 13.1366L16.2892 14.4257L15.1992 13.6289L14.1094 14.414L14.5313 13.1367L13.4414 12.3516H14.7891L15.1993 11.0742ZM22.8048 11.0742L23.2148 12.3516H24.5626L23.4727 13.1366L23.8828 14.4257L22.8047 13.6289L21.7149 14.414L22.1251 13.1367L21.0469 12.3516H22.3829L22.8048 11.0742ZM30.3986 11.0742L30.8204 12.3516H32.1563L31.0782 13.1366L31.4883 14.4257L30.3984 13.6289L29.3203 14.414L29.7306 13.1367L28.6407 12.3516H30.0001L30.3986 11.0742ZM38.0039 11.0742L38.4141 12.3516H39.7618L38.6719 13.1366L39.0821 14.4257L38.0039 13.6289L36.9141 14.414L37.3243 13.1367L36.2462 12.3516H37.5821L38.0039 11.0742ZM3.79693 14.3086L4.21881 15.586H5.55481L4.47656 16.371L4.88681 17.6601L3.79693 16.8632L2.71881 17.6484L3.12893 16.3711L2.03918 15.586H3.39856L3.79693 14.3086ZM11.4024 14.3086L11.8126 15.586H13.1602L12.0703 16.371L12.4806 17.6485L11.4024 16.8632L10.3126 17.6484L10.7227 16.3711L9.64456 15.586H10.9806L11.4024 14.3086ZM18.9962 14.3086L19.4181 15.586H20.7423L19.6642 16.371L20.0742 17.6601L18.9844 16.8632L17.9063 17.6484L18.3164 16.3711L17.2266 15.586H18.5743L18.9962 14.3086ZM26.6017 14.3086L27.0117 15.586H28.3594L27.2696 16.371L27.6914 17.6601L26.6016 16.8632L25.5118 17.6484L25.9337 16.3711L24.8438 15.586H26.1798L26.6017 14.3086ZM34.1954 14.3086L34.6173 15.586H35.9532L34.8751 16.371L35.2852 17.6601L34.1953 16.8632L33.1172 17.6484L33.5274 16.3711L32.4493 15.586H33.7852L34.1954 14.3086ZM41.8008 14.3086L42.2109 15.586H43.5587L42.4688 16.371L42.8907 17.6601L41.8008 16.8632L40.7109 17.6484L41.1328 16.3711L40.0431 15.586H41.3907L41.8008 14.3086ZM7.60556 17.543L8.01568 18.8204H9.36331L8.27343 19.6054L8.68368 20.8829L7.60556 20.086L6.51568 20.8829L6.92581 19.5937L5.84768 18.8086H7.18381L7.60556 17.543ZM15.1993 17.543L15.6212 18.8204H16.9571L15.8672 19.6054L16.2892 20.8829L15.1992 20.086L14.1094 20.8829L14.5313 19.5937L13.4414 18.8086H14.7891L15.1993 17.543ZM22.8048 17.543L23.2148 18.8204H24.5626L23.4727 19.6054L23.8828 20.8829L22.8047 20.086L21.7149 20.8829L22.1251 19.5937L21.0469 18.8086H22.3829L22.8048 17.543ZM30.3986 17.543L30.8204 18.8204H32.1563L31.0782 19.6054L31.4883 20.8829L30.3984 20.086L29.3203 20.8829L29.7306 19.5937L28.6407 18.8086H30.0001L30.3986 17.543ZM38.0039 17.543L38.4141 18.8204H39.7618L38.6719 19.6054L39.0821 20.8829L38.0039 20.086L36.9141 20.8829L37.3243 19.5937L36.2462 18.8086H37.5821L38.0039 17.543ZM3.79693 20.7656L4.21881 22.0547H5.55481L4.47656 22.8397L4.88681 24.1055L3.79693 23.3204L2.71881 24.1054L3.12893 22.8281L2.03918 22.043H3.39856L3.79693 20.7656ZM11.4024 20.7656L11.8126 22.0547H13.1602L12.0703 22.8397L12.4923 24.1055L11.4023 23.3204L10.3126 24.1054L10.7344 22.8281L9.64456 22.043H10.9806L11.4024 20.7656ZM18.9962 20.7656L19.4181 22.0547H20.7423L19.6642 22.8397L20.0742 24.1055L18.9844 23.3204L17.9063 24.1054L18.3164 22.8281L17.2266 22.043H18.5743L18.9962 20.7656ZM26.6017 20.7656L27.0117 22.0547H28.3594L27.2696 22.8397L27.6914 24.1055L26.6016 23.3204L25.5118 24.1054L25.9337 22.8281L24.8438 22.043H26.1798L26.6017 20.7656ZM34.1954 20.7656L34.6173 22.0547H35.9532L34.8751 22.8397L35.2852 24.1055L34.1953 23.3204L33.1172 24.1054L33.5274 22.8281L32.4493 22.043H33.7852L34.1954 20.7656ZM41.8008 20.7656L42.2109 22.0547H43.5587L42.4688 22.8397L42.8907 24.1055L41.8008 23.3204L40.7109 24.1054L41.1328 22.8281L40.0431 22.043H41.3907L41.8008 20.7656ZM7.60556 24L8.01568 25.2774H9.36331L8.27343 26.0625L8.68368 27.3516L7.60556 26.5547L6.51568 27.3397L6.92581 26.0625L5.84768 25.2774H7.18381L7.60556 24ZM15.1993 24L15.6212 25.2774H16.9571L15.8672 26.0625L16.2892 27.3516L15.1992 26.5547L14.1094 27.3397L14.5313 26.0625L13.4414 25.2774H14.7891L15.1993 24ZM22.8048 24L23.2148 25.2774H24.5626L23.4727 26.0625L23.8828 27.3516L22.8047 26.5547L21.7149 27.3397L22.1251 26.0625L21.0469 25.2774H22.3829L22.8048 24ZM30.3986 24L30.8204 25.2774H32.1563L31.0782 26.0625L31.4883 27.3516L30.3984 26.5547L29.3203 27.3397L29.7306 26.0625L28.6407 25.2774H30.0001L30.3986 24ZM38.0039 24L38.4141 25.2774H39.7618L38.6719 26.0625L39.0821 27.3516L38.0039 26.5547L36.9141 27.3397L37.3243 26.0625L36.2462 25.2774H37.5821L38.0039 24ZM3.79693 27.2344L4.21881 28.5117H5.55481L4.47656 29.2969L4.88681 30.5742L3.79693 29.7891L2.71881 30.5741L3.12893 29.2851L2.03918 28.5H3.39856L3.79693 27.2344ZM11.4024 27.2344L11.8126 28.5117H13.1602L12.0703 29.2969L12.4923 30.5742L11.4023 29.7891L10.3126 30.5741L10.7344 29.2851L9.64456 28.5H10.9806L11.4024 27.2344ZM18.9962 27.2344L19.4181 28.5117H20.7423L19.6876 29.2969L20.0977 30.5742L19.0078 29.7891L17.9297 30.5741L18.3399 29.2851L17.2501 28.5H18.5977L18.9962 27.2344ZM26.6017 27.2344L27.0117 28.5117H28.3594L27.2696 29.2969L27.6914 30.5742L26.6016 29.7891L25.5118 30.5741L25.9337 29.2851L24.8438 28.5H26.1798L26.6017 27.2344ZM34.1954 27.2344L34.6173 28.5117H35.9532L34.8751 29.2969L35.2852 30.5742L34.1953 29.7891L33.1172 30.5741L33.5274 29.2851L32.4493 28.5H33.7852L34.1954 27.2344ZM41.8008 27.2344L42.2109 28.5117H43.5587L42.4688 29.2969L42.8907 30.5742L41.8008 29.7891L40.7109 30.5741L41.1328 29.2851L40.0431 28.5H41.3907L41.8008 27.2344Z" fill="white"/>
</g>
<defs>
<clipPath id="clip0_526_7">
<rect width="80" height="60" fill="white"/>
</clipPath>
</defs>
</svg>
